<svg width="16" height="16" viewBox="0 0 16 16" fill="none" xmlns="http://www.w3.org/2000/svg">
<path d="M8 1.33325C9.03492 1.33321 10.0296 1.7343 10.775 2.45223C11.5204 3.17016 11.9585 4.14906 11.9973 5.18325L12 5.33325H12.6667C13.0031 5.33315 13.327 5.46019 13.5737 5.68892C13.8204 5.91764 13.9714 6.23115 13.9967 6.56659L14 6.66658V13.3333C14.0001 13.6696 13.8731 13.9936 13.6443 14.2403C13.4156 14.4869 13.1021 14.638 12.7667 14.6633L12.6667 14.6666H3.33333C2.99695 14.6667 2.67296 14.5396 2.4263 14.3109C2.17965 14.0822 2.02856 13.7687 2.00333 13.4333L2 13.3333V6.66658C1.99989 6.3302 2.12694 6.00621 2.35566 5.75955C2.58439 5.5129 2.8979 5.36181 3.23333 5.33659L3.33333 5.33325H4C4 4.27239 4.42143 3.25497 5.17157 2.50482C5.92172 1.75468 6.93913 1.33325 8 1.33325ZM12.6667 6.66658H3.33333V13.3333H12.6667V6.66658ZM8 7.99992C8.28439 8.00001 8.56131 8.09103 8.79029 8.25968C9.01928 8.42834 9.18834 8.66579 9.27278 8.93736C9.35722 9.20893 9.35262 9.50038 9.25965 9.76915C9.16667 10.0379 8.9902 10.2699 8.756 10.4313L8.66667 10.4879V11.3333C8.66648 11.5032 8.60141 11.6666 8.48477 11.7902C8.36812 11.9137 8.2087 11.9881 8.03907 11.998C7.86944 12.008 7.70241 11.9528 7.57211 11.8437C7.44181 11.7347 7.35807 11.58 7.338 11.4113L7.33333 11.3333V10.4879C7.07916 10.3412 6.88052 10.1146 6.76821 9.84346C6.65589 9.5723 6.63619 9.27166 6.71216 8.98815C6.78812 8.70465 6.95551 8.45414 7.18836 8.27546C7.4212 8.09679 7.7065 7.99993 8 7.99992ZM8 2.66659C7.29276 2.66659 6.61448 2.94754 6.11438 3.44763C5.61428 3.94773 5.33333 4.62601 5.33333 5.33325H10.6667C10.6667 4.62601 10.3857 3.94773 9.88562 3.44763C9.38552 2.94754 8.70724 2.66659 8 2.66659Z" fill="#475467"/>
</svg>
