<svg width="16" height="16" viewBox="0 0 16 16" fill="none" xmlns="http://www.w3.org/2000/svg">
<path fill-rule="evenodd" clip-rule="evenodd" d="M12.3338 1.3335C12.7188 1.33346 13.0978 1.42868 13.4371 1.61068C13.7763 1.79268 14.0653 2.05579 14.2782 2.37657C14.4911 2.69735 14.6213 3.06581 14.6572 3.44913C14.6931 3.83244 14.6336 4.21868 14.4841 4.57343C14.3345 4.92817 14.0994 5.24039 13.7999 5.48225C13.5004 5.72411 13.1456 5.88809 12.7673 5.95958C12.389 6.03107 11.9989 6.00784 11.6318 5.89197C11.2646 5.7761 10.9319 5.57119 10.6632 5.2955L7.78049 6.80683C7.92249 7.17683 8.00049 7.58016 8.00049 8.00016C8.00093 8.40806 7.92636 8.81257 7.78049 9.1935L10.6632 10.7048C11.0547 10.3038 11.5774 10.057 12.1359 10.0097C12.6944 9.96243 13.2512 10.1177 13.7046 10.4472C14.158 10.7767 14.4776 11.2584 14.605 11.8042C14.7325 12.3499 14.6592 12.9234 14.3987 13.4196C14.1381 13.9158 13.7076 14.3016 13.186 14.5065C12.6643 14.7114 12.0863 14.7217 11.5577 14.5356C11.029 14.3494 10.5851 13.9791 10.307 13.4925C10.0289 13.0059 9.93525 12.4355 10.0432 11.8855L7.05982 10.3215C6.59777 10.7978 6.00408 11.1253 5.35477 11.2622C4.70546 11.399 4.03007 11.339 3.4151 11.0897C2.80013 10.8404 2.27355 10.4132 1.9028 9.86289C1.53204 9.31255 1.33398 8.66407 1.33398 8.0005C1.33398 7.33692 1.53204 6.68844 1.9028 6.1381C2.27355 5.58776 2.80013 5.16059 3.4151 4.91131C4.03007 4.66203 4.70546 4.60197 5.35477 4.73882C6.00408 4.87567 6.59777 5.20321 7.05982 5.6795L10.0432 4.11483C9.97702 3.77678 9.98655 3.42828 10.0711 3.09435C10.1556 2.76042 10.313 2.44934 10.532 2.18345C10.7509 1.91756 11.0261 1.70345 11.3376 1.5565C11.6492 1.40954 11.9894 1.33339 12.3338 1.3335ZM12.3338 11.3335C12.0686 11.3335 11.8143 11.4389 11.6267 11.6264C11.4392 11.8139 11.3338 12.0683 11.3338 12.3335C11.3338 12.5987 11.4392 12.8531 11.6267 13.0406C11.8143 13.2281 12.0686 13.3335 12.3338 13.3335C12.599 13.3335 12.8534 13.2281 13.0409 13.0406C13.2285 12.8531 13.3338 12.5987 13.3338 12.3335C13.3338 12.0683 13.2285 11.8139 13.0409 11.6264C12.8534 11.4389 12.599 11.3335 12.3338 11.3335ZM4.66715 6.00016C4.13672 6.00016 3.62801 6.21088 3.25294 6.58595C2.87787 6.96102 2.66715 7.46973 2.66715 8.00016C2.66715 8.5306 2.87787 9.0393 3.25294 9.41438C3.62801 9.78945 4.13672 10.0002 4.66715 10.0002C5.19759 10.0002 5.7063 9.78945 6.08137 9.41438C6.45644 9.0393 6.66715 8.5306 6.66715 8.00016C6.66715 7.46973 6.45644 6.96102 6.08137 6.58595C5.7063 6.21088 5.19759 6.00016 4.66715 6.00016ZM12.3338 2.66683C12.2025 2.66683 12.0725 2.6927 11.9511 2.74295C11.8298 2.7932 11.7196 2.86686 11.6267 2.95972C11.5339 3.05258 11.4602 3.16282 11.4099 3.28415C11.3597 3.40547 11.3338 3.53551 11.3338 3.66683C11.3338 3.79815 11.3597 3.92819 11.4099 4.04951C11.4602 4.17084 11.5339 4.28108 11.6267 4.37394C11.7196 4.46679 11.8298 4.54045 11.9511 4.59071C12.0725 4.64096 12.2025 4.66683 12.3338 4.66683C12.599 4.66683 12.8534 4.56147 13.0409 4.37394C13.2285 4.1864 13.3338 3.93205 13.3338 3.66683C13.3338 3.40161 13.2285 3.14726 13.0409 2.95972C12.8534 2.77219 12.599 2.66683 12.3338 2.66683Z" fill="#036D35"/>
</svg>
